<svg width="288" height="112" viewBox="0 0 288 112" fill="none" xmlns="http://www.w3.org/2000/svg">
<mask id="mask0_1230:1004" style="mask-type:alpha" maskUnits="userSpaceOnUse" x="0" y="0" width="288" height="112">
<rect width="288" height="112" fill="#EFEFEF"/>
</mask>
<g mask="url(#mask0_1230:1004)">
<path d="M40.1141 46.723H21.592L25.5719 47.8966C28.4803 48.764 31.1847 51.4173 31.1847 54.4278C31.1847 57.5913 29.5008 61.7754 25.5209 61.7754H25.4699C16.6425 61.8264 11.2849 54.1727 9.75414 47.5394C8.32543 40.8041 10.2644 30.7011 18.4284 28.8132C25.5719 27.1804 34.0421 33.3544 32.2052 40.2938H36.7464C39.1446 40.2428 40.7774 37.7936 39.8589 35.5995C37.3587 29.8337 29.807 26.313 21.643 26.364C9.49901 26.415 2.04935 34.7321 2.1514 45.1412C2.20243 55.5503 9.55004 64.0205 21.694 64.0205C33.4298 64.0205 39.0425 57.9995 40.1141 55.2442C40.1141 55.1932 40.1141 55.1932 40.1141 55.1932V46.723ZM75.0706 49.7335L64.3043 27.3335H55.426C56.8547 30.1909 56.8547 33.5585 55.477 36.4159L47.8232 52.3358C45.9353 56.2137 43.5371 59.8364 40.6287 63.051H47.2109C47.1089 60.3977 47.6191 57.7954 48.7417 55.4483L49.507 53.9175H68.2332C69.4578 56.826 70.2742 59.8875 70.5804 63.051H83.5918C80.2241 58.969 77.3667 54.4788 75.0706 49.7335ZM50.5786 51.6724L58.9467 34.477L67.2127 51.6724H50.5786ZM118.582 57.9485L113.684 51.2642C112.918 50.2437 111.949 49.5294 110.826 49.0702C116.286 48.4068 120.521 44.2228 120.521 38.559C120.521 35.4465 119.246 32.6401 117.205 30.5991C115.164 28.5581 112.357 27.3335 109.296 27.3335H85.569C85.569 27.3335 87.7121 29.6296 87.7121 35.2424V55.0911C87.7121 59.6323 86.2834 62.0305 85.7221 62.7959L85.569 63.051H97.815L97.6619 62.7959C97.1007 62.0305 95.672 59.6323 95.672 55.0911V53.3563C95.672 50.5499 97.2537 49.0191 100.06 49.0191C102.101 49.0191 103.173 50.1927 104.142 51.2132L110.418 60.3467C111.643 62.0305 113.582 63.051 115.674 63.051H124.45C122.154 61.7754 120.113 60.0405 118.582 57.9485ZM103.938 46.774H95.672V29.5786H103.938C108.683 29.5786 112.51 33.8137 112.51 38.559C112.51 43.3043 108.683 46.774 103.938 46.774ZM148.496 61.3672C139.668 61.3672 135.178 54.1216 133.749 47.4374C132.321 40.7531 133.443 30.6501 141.607 28.8642C148.802 27.2314 157.221 33.4055 155.333 40.3449H159.976C162.374 40.3449 163.956 37.7936 162.987 35.5485C160.487 29.8847 152.935 26.364 144.873 26.364C132.729 26.364 125.279 34.6301 125.279 45.0392C125.279 55.4483 132.627 64.0205 144.771 64.0205C153.802 64.0205 160.64 59.2241 163.191 52.5399C163.191 52.4888 156.354 61.3672 148.496 61.3672ZM176.842 55.0911V35.2424C176.842 29.6296 178.986 27.3335 178.986 27.3335H166.791C166.791 27.3335 168.934 29.6296 168.934 35.2424V55.0911C168.934 59.6323 167.505 62.0305 166.944 62.7959L166.791 63.051H178.986L178.781 62.7959C178.271 62.0305 176.842 59.6323 176.842 55.0911ZM215.39 49.7335L204.623 27.3335H195.745C197.174 30.1909 197.174 33.5585 195.796 36.4159L188.142 52.3358C186.254 56.2137 183.856 59.8364 180.948 63.051H187.53C187.428 60.3977 187.938 57.7954 189.061 55.4483L189.826 53.9175H208.552C209.777 56.826 210.593 59.8875 210.899 63.051H223.911C220.543 58.969 217.686 54.4788 215.39 49.7335ZM190.897 51.6724L199.266 34.477L207.532 51.6724H190.897Z" fill="#2B2C32"/>
<path d="M40.1141 46.723H21.592L25.5719 47.8966C28.4803 48.764 31.1847 51.4173 31.1847 54.4278C31.1847 57.5913 29.5008 61.7754 25.5209 61.7754H25.4699C16.6425 61.8264 11.2849 54.1727 9.75414 47.5394C8.32543 40.8041 10.2644 30.7011 18.4284 28.8132C25.5719 27.1804 34.0421 33.3544 32.2052 40.2938H36.7464C39.1446 40.2428 40.7774 37.7936 39.8589 35.5995C37.3587 29.8337 29.807 26.313 21.643 26.364C9.49901 26.415 2.04935 34.7321 2.1514 45.1412C2.20243 55.5503 9.55004 64.0205 21.694 64.0205C33.4298 64.0205 39.0425 57.9995 40.1141 55.2442C40.1141 55.1932 40.1141 55.1932 40.1141 55.1932V46.723ZM75.0706 49.7335L64.3043 27.3335H55.426C56.8547 30.1909 56.8547 33.5585 55.477 36.4159L47.8232 52.3358C45.9353 56.2137 43.5371 59.8364 40.6287 63.051H47.2109C47.1089 60.3977 47.6191 57.7954 48.7417 55.4483L49.507 53.9175H68.2332C69.4578 56.826 70.2742 59.8875 70.5804 63.051H83.5918C80.2241 58.969 77.3667 54.4788 75.0706 49.7335ZM50.5786 51.6724L58.9467 34.477L67.2127 51.6724H50.5786ZM118.582 57.9485L113.684 51.2642C112.918 50.2437 111.949 49.5294 110.826 49.0702C116.286 48.4068 120.521 44.2228 120.521 38.559C120.521 35.4465 119.246 32.6401 117.205 30.5991C115.164 28.5581 112.357 27.3335 109.296 27.3335H85.569C85.569 27.3335 87.7121 29.6296 87.7121 35.2424V55.0911C87.7121 59.6323 86.2834 62.0305 85.7221 62.7959L85.569 63.051H97.815L97.6619 62.7959C97.1007 62.0305 95.672 59.6323 95.672 55.0911V53.3563C95.672 50.5499 97.2537 49.0191 100.06 49.0191C102.101 49.0191 103.173 50.1927 104.142 51.2132L110.418 60.3467C111.643 62.0305 113.582 63.051 115.674 63.051H124.45C122.154 61.7754 120.113 60.0405 118.582 57.9485ZM103.938 46.774H95.672V29.5786H103.938C108.683 29.5786 112.51 33.8137 112.51 38.559C112.51 43.3043 108.683 46.774 103.938 46.774ZM148.496 61.3672C139.668 61.3672 135.178 54.1216 133.749 47.4374C132.321 40.7531 133.443 30.6501 141.607 28.8642C148.802 27.2314 157.221 33.4055 155.333 40.3449H159.976C162.374 40.3449 163.956 37.7936 162.987 35.5485C160.487 29.8847 152.935 26.364 144.873 26.364C132.729 26.364 125.279 34.6301 125.279 45.0392C125.279 55.4483 132.627 64.0205 144.771 64.0205C153.802 64.0205 160.64 59.2241 163.191 52.5399C163.191 52.4888 156.354 61.3672 148.496 61.3672ZM176.842 55.0911V35.2424C176.842 29.6296 178.986 27.3335 178.986 27.3335H166.791C166.791 27.3335 168.934 29.6296 168.934 35.2424V55.0911C168.934 59.6323 167.505 62.0305 166.944 62.7959L166.791 63.051H178.986L178.781 62.7959C178.271 62.0305 176.842 59.6323 176.842 55.0911ZM215.39 49.7335L204.623 27.3335H195.745C197.174 30.1909 197.174 33.5585 195.796 36.4159L188.142 52.3358C186.254 56.2137 183.856 59.8364 180.948 63.051H187.53C187.428 60.3977 187.938 57.7954 189.061 55.4483L189.826 53.9175H208.552C209.777 56.826 210.593 59.8875 210.899 63.051H223.911C220.543 58.969 217.686 54.4788 215.39 49.7335ZM190.897 51.6724L199.266 34.477L207.532 51.6724H190.897Z" fill="#2B2C32"/>
<path d="M37.7105 83.4846H33.0812L32.123 85.6624H30.8412L34.7861 76.9512H36.0181L39.9754 85.6624H38.6687L37.7105 83.4846ZM37.275 82.489L35.3959 78.2206L33.5167 82.489H37.275ZM54.242 76.9512V85.6624H53.2216L47.9949 79.1664V85.6624H46.7504V76.9512H47.7709L52.9976 83.4472V76.9512H54.242ZM62.325 76.9512H65.9961C66.917 76.9512 67.7341 77.1338 68.4476 77.4988C69.1611 77.8638 69.7128 78.3782 70.1027 79.0419C70.501 79.6973 70.7001 80.4523 70.7001 81.3068C70.7001 82.1613 70.501 82.9204 70.1027 83.5841C69.7128 84.2395 69.1611 84.7498 68.4476 85.1148C67.7341 85.4798 66.917 85.6624 65.9961 85.6624H62.325V76.9512ZM65.9214 84.5797C66.6266 84.5797 67.2447 84.4428 67.7756 84.169C68.3149 83.8952 68.7297 83.5136 69.0201 83.0241C69.3104 82.5264 69.4556 81.9539 69.4556 81.3068C69.4556 80.6597 69.3104 80.0914 69.0201 79.6019C68.7297 79.1041 68.3149 78.7184 67.7756 78.4446C67.2447 78.1708 66.6266 78.0339 65.9214 78.0339H63.5694V84.5797H65.9214ZM90.2967 76.9512C91.425 76.9512 92.3127 77.2209 92.9598 77.7601C93.6069 78.2994 93.9304 79.0419 93.9304 79.9877C93.9304 80.9335 93.6069 81.676 92.9598 82.2152C92.3127 82.7545 91.425 83.0241 90.2967 83.0241H88.1438V85.6624H86.8993V76.9512H90.2967ZM90.2593 81.9415C91.0475 81.9415 91.649 81.7755 92.0638 81.4437C92.4786 81.1035 92.686 80.6182 92.686 79.9877C92.686 79.3572 92.4786 78.876 92.0638 78.5441C91.649 78.204 91.0475 78.0339 90.2593 78.0339H88.1438V81.9415H90.2593ZM106.347 83.4846H101.718L100.759 85.6624H99.4777L103.423 76.9512H104.655L108.612 85.6624H107.305L106.347 83.4846ZM105.911 82.489L104.032 78.2206L102.153 82.489H105.911ZM121.211 85.6624L119.332 82.9868C119.099 83.0034 118.917 83.0117 118.784 83.0117H116.631V85.6624H115.387V76.9512H118.784C119.913 76.9512 120.8 77.2209 121.447 77.7601C122.094 78.2994 122.418 79.0419 122.418 79.9877C122.418 80.6597 122.252 81.2321 121.92 81.705C121.588 82.1779 121.115 82.5222 120.502 82.7379L122.567 85.6624H121.211ZM118.747 81.9539C119.535 81.9539 120.137 81.7838 120.551 81.4437C120.966 81.1035 121.174 80.6182 121.174 79.9877C121.174 79.3572 120.966 78.876 120.551 78.5441C120.137 78.204 119.535 78.0339 118.747 78.0339H116.631V81.9539H118.747ZM131.512 78.0339H128.526V76.9512H135.731V78.0339H132.744V85.6624H131.512V78.0339ZM150.054 76.9512V85.6624H149.033L143.806 79.1664V85.6624H142.562V76.9512H143.582L148.809 83.4472V76.9512H150.054ZM164.458 84.5797V85.6624H158.136V76.9512H164.284V78.0339H159.381V80.7095H163.749V81.7672H159.381V84.5797H164.458ZM177.773 85.6624L175.894 82.9868C175.661 83.0034 175.479 83.0117 175.346 83.0117H173.193V85.6624H171.949V76.9512H175.346C176.474 76.9512 177.362 77.2209 178.009 77.7601C178.656 78.2994 178.98 79.0419 178.98 79.9877C178.98 80.6597 178.814 81.2321 178.482 81.705C178.15 82.1779 177.677 82.5222 177.064 82.7379L179.129 85.6624H177.773ZM175.309 81.9539C176.097 81.9539 176.698 81.7838 177.113 81.4437C177.528 81.1035 177.736 80.6182 177.736 79.9877C177.736 79.3572 177.528 78.876 177.113 78.5441C176.698 78.204 176.097 78.0339 175.309 78.0339H173.193V81.9539H175.309ZM189.005 85.7619C188.349 85.7619 187.715 85.6624 187.101 85.4632C186.495 85.2558 186.018 84.9904 185.67 84.6668L186.13 83.6961C186.462 83.9948 186.885 84.2395 187.399 84.4304C187.922 84.6129 188.457 84.7041 189.005 84.7041C189.727 84.7041 190.266 84.5838 190.623 84.3432C190.979 84.0944 191.158 83.7666 191.158 83.3601C191.158 83.0615 191.058 82.8209 190.859 82.6384C190.668 82.4475 190.428 82.3024 190.137 82.2028C189.855 82.1032 189.453 81.9912 188.93 81.8668C188.275 81.7092 187.744 81.5515 187.337 81.3939C186.939 81.2363 186.595 80.9957 186.304 80.6721C186.022 80.3403 185.881 79.8964 185.881 79.3406C185.881 78.876 186.001 78.457 186.242 78.0837C186.491 77.7104 186.864 77.4117 187.362 77.1877C187.86 76.9637 188.478 76.8517 189.216 76.8517C189.731 76.8517 190.237 76.9181 190.735 77.0508C191.232 77.1835 191.66 77.3744 192.016 77.6232L191.606 78.6188C191.241 78.3865 190.851 78.2123 190.436 78.0961C190.021 77.9717 189.615 77.9095 189.216 77.9095C188.511 77.9095 187.98 78.0381 187.623 78.2952C187.275 78.5524 187.101 78.8843 187.101 79.2908C187.101 79.5895 187.2 79.8342 187.399 80.025C187.599 80.2075 187.843 80.3527 188.134 80.4606C188.432 80.5601 188.835 80.668 189.341 80.7841C189.996 80.9418 190.523 81.0994 190.921 81.257C191.319 81.4146 191.66 81.6552 191.942 81.9788C192.232 82.3024 192.377 82.7379 192.377 83.2855C192.377 83.7418 192.253 84.1607 192.004 84.5424C191.755 84.9157 191.377 85.2144 190.871 85.4384C190.365 85.6541 189.743 85.7619 189.005 85.7619Z" fill="#2B2C32"/>
<path d="M37.7105 83.4846H33.0812L32.123 85.6624H30.8412L34.7861 76.9512H36.0181L39.9754 85.6624H38.6687L37.7105 83.4846ZM37.275 82.489L35.3959 78.2206L33.5167 82.489H37.275ZM54.242 76.9512V85.6624H53.2216L47.9949 79.1664V85.6624H46.7504V76.9512H47.7709L52.9976 83.4472V76.9512H54.242ZM62.325 76.9512H65.9961C66.917 76.9512 67.7341 77.1338 68.4476 77.4988C69.1611 77.8638 69.7128 78.3782 70.1027 79.0419C70.501 79.6973 70.7001 80.4523 70.7001 81.3068C70.7001 82.1613 70.501 82.9204 70.1027 83.5841C69.7128 84.2395 69.1611 84.7498 68.4476 85.1148C67.7341 85.4798 66.917 85.6624 65.9961 85.6624H62.325V76.9512ZM65.9214 84.5797C66.6266 84.5797 67.2447 84.4428 67.7756 84.169C68.3149 83.8952 68.7297 83.5136 69.0201 83.0241C69.3104 82.5264 69.4556 81.9539 69.4556 81.3068C69.4556 80.6597 69.3104 80.0914 69.0201 79.6019C68.7297 79.1041 68.3149 78.7184 67.7756 78.4446C67.2447 78.1708 66.6266 78.0339 65.9214 78.0339H63.5694V84.5797H65.9214ZM90.2967 76.9512C91.425 76.9512 92.3127 77.2209 92.9598 77.7601C93.6069 78.2994 93.9304 79.0419 93.9304 79.9877C93.9304 80.9335 93.6069 81.676 92.9598 82.2152C92.3127 82.7545 91.425 83.0241 90.2967 83.0241H88.1438V85.6624H86.8993V76.9512H90.2967ZM90.2593 81.9415C91.0475 81.9415 91.649 81.7755 92.0638 81.4437C92.4786 81.1035 92.686 80.6182 92.686 79.9877C92.686 79.3572 92.4786 78.876 92.0638 78.5441C91.649 78.204 91.0475 78.0339 90.2593 78.0339H88.1438V81.9415H90.2593ZM106.347 83.4846H101.718L100.759 85.6624H99.4777L103.423 76.9512H104.655L108.612 85.6624H107.305L106.347 83.4846ZM105.911 82.489L104.032 78.2206L102.153 82.489H105.911ZM121.211 85.6624L119.332 82.9868C119.099 83.0034 118.917 83.0117 118.784 83.0117H116.631V85.6624H115.387V76.9512H118.784C119.913 76.9512 120.8 77.2209 121.447 77.7601C122.094 78.2994 122.418 79.0419 122.418 79.9877C122.418 80.6597 122.252 81.2321 121.92 81.705C121.588 82.1779 121.115 82.5222 120.502 82.7379L122.567 85.6624H121.211ZM118.747 81.9539C119.535 81.9539 120.137 81.7838 120.551 81.4437C120.966 81.1035 121.174 80.6182 121.174 79.9877C121.174 79.3572 120.966 78.876 120.551 78.5441C120.137 78.204 119.535 78.0339 118.747 78.0339H116.631V81.9539H118.747ZM131.512 78.0339H128.526V76.9512H135.731V78.0339H132.744V85.6624H131.512V78.0339ZM150.054 76.9512V85.6624H149.033L143.806 79.1664V85.6624H142.562V76.9512H143.582L148.809 83.4472V76.9512H150.054ZM164.458 84.5797V85.6624H158.136V76.9512H164.284V78.0339H159.381V80.7095H163.749V81.7672H159.381V84.5797H164.458ZM177.773 85.6624L175.894 82.9868C175.661 83.0034 175.479 83.0117 175.346 83.0117H173.193V85.6624H171.949V76.9512H175.346C176.474 76.9512 177.362 77.2209 178.009 77.7601C178.656 78.2994 178.98 79.0419 178.98 79.9877C178.98 80.6597 178.814 81.2321 178.482 81.705C178.15 82.1779 177.677 82.5222 177.064 82.7379L179.129 85.6624H177.773ZM175.309 81.9539C176.097 81.9539 176.698 81.7838 177.113 81.4437C177.528 81.1035 177.736 80.6182 177.736 79.9877C177.736 79.3572 177.528 78.876 177.113 78.5441C176.698 78.204 176.097 78.0339 175.309 78.0339H173.193V81.9539H175.309ZM189.005 85.7619C188.349 85.7619 187.715 85.6624 187.101 85.4632C186.495 85.2558 186.018 84.9904 185.67 84.6668L186.13 83.6961C186.462 83.9948 186.885 84.2395 187.399 84.4304C187.922 84.6129 188.457 84.7041 189.005 84.7041C189.727 84.7041 190.266 84.5838 190.623 84.3432C190.979 84.0944 191.158 83.7666 191.158 83.3601C191.158 83.0615 191.058 82.8209 190.859 82.6384C190.668 82.4475 190.428 82.3024 190.137 82.2028C189.855 82.1032 189.453 81.9912 188.93 81.8668C188.275 81.7092 187.744 81.5515 187.337 81.3939C186.939 81.2363 186.595 80.9957 186.304 80.6721C186.022 80.3403 185.881 79.8964 185.881 79.3406C185.881 78.876 186.001 78.457 186.242 78.0837C186.491 77.7104 186.864 77.4117 187.362 77.1877C187.86 76.9637 188.478 76.8517 189.216 76.8517C189.731 76.8517 190.237 76.9181 190.735 77.0508C191.232 77.1835 191.66 77.3744 192.016 77.6232L191.606 78.6188C191.241 78.3865 190.851 78.2123 190.436 78.0961C190.021 77.9717 189.615 77.9095 189.216 77.9095C188.511 77.9095 187.98 78.0381 187.623 78.2952C187.275 78.5524 187.101 78.8843 187.101 79.2908C187.101 79.5895 187.2 79.8342 187.399 80.025C187.599 80.2075 187.843 80.3527 188.134 80.4606C188.432 80.5601 188.835 80.668 189.341 80.7841C189.996 80.9418 190.523 81.0994 190.921 81.257C191.319 81.4146 191.66 81.6552 191.942 81.9788C192.232 82.3024 192.377 82.7379 192.377 83.2855C192.377 83.7418 192.253 84.1607 192.004 84.5424C191.755 84.9157 191.377 85.2144 190.871 85.4384C190.365 85.6541 189.743 85.7619 189.005 85.7619Z" fill="#2B2C32"/>
</g>
</svg>
