<svg width="288" height="112" viewBox="0 0 288 112" fill="none" xmlns="http://www.w3.org/2000/svg">
<mask id="mask0_1230:1011" style="mask-type:alpha" maskUnits="userSpaceOnUse" x="0" y="0" width="288" height="112">
<rect width="288" height="112" fill="#EFEFEF"/>
</mask>
<g mask="url(#mask0_1230:1011)">
<mask id="mask1_1230:1011" style="mask-type:alpha" maskUnits="userSpaceOnUse" x="0" y="28" width="227" height="45">
<path fill-rule="evenodd" clip-rule="evenodd" d="M0 28.6526H227V72.3474H0V28.6526ZM166.254 38.2441H192.897V46.77H166.254V38.2441ZM192.897 54.23H166.254V63.8216H192.897V54.23Z" fill="#C4C4C4"/>
</mask>
<g mask="url(#mask1_1230:1011)">
<path d="M47.6397 30.4881V71.1042H37.7461V46.7461L28.6624 71.1042H20.6781L11.5366 46.6883V71.1042H1.64293V30.4881H13.3302L24.7281 58.6069L36.0103 30.4881H47.6397ZM70.2024 71.5092C66.3838 71.5092 62.8738 70.622 59.6723 68.8477C56.5094 67.0734 53.983 64.6048 52.093 61.442C50.2415 58.2405 49.3158 54.6533 49.3158 50.6805C49.3158 46.7076 50.2415 43.1397 52.093 39.9768C53.983 36.8139 56.5094 34.3453 59.6723 32.571C62.8738 30.7967 66.3838 29.9096 70.2024 29.9096C74.021 29.9096 77.5117 30.7967 80.6746 32.571C83.8761 34.3453 86.3832 36.8139 88.1961 39.9768C90.0475 43.1397 90.9733 46.7076 90.9733 50.6805C90.9733 54.6533 90.0475 58.2405 88.1961 61.442C86.3447 64.6048 83.8375 67.0734 80.6746 68.8477C77.5117 70.622 74.021 71.5092 70.2024 71.5092ZM70.2024 62.4834C73.4424 62.4834 76.0267 61.4034 77.9553 59.2434C79.9225 57.0834 80.906 54.2291 80.906 50.6805C80.906 47.0933 79.9225 44.239 77.9553 42.1175C76.0267 39.9575 73.4424 38.8775 70.2024 38.8775C66.9238 38.8775 64.3009 39.9382 62.3338 42.0597C60.4052 44.1811 59.4409 47.0547 59.4409 50.6805C59.4409 54.2676 60.4052 57.1412 62.3338 59.3012C64.3009 61.4227 66.9238 62.4834 70.2024 62.4834ZM113.43 71.1042L104.982 55.7719H102.61V71.1042H92.7167V30.4881H109.322C112.523 30.4881 115.243 31.0474 117.48 32.166C119.755 33.2846 121.453 34.8275 122.571 36.7946C123.69 38.7232 124.249 40.8832 124.249 43.2747C124.249 45.9747 123.478 48.3854 121.935 50.5069C120.43 52.6283 118.193 54.1326 115.223 55.0198L124.596 71.1042H113.43ZM102.61 48.7711H108.743C110.556 48.7711 111.906 48.3276 112.793 47.4404C113.719 46.5533 114.182 45.2997 114.182 43.6797C114.182 42.1368 113.719 40.9218 112.793 40.0347C111.906 39.1475 110.556 38.7039 108.743 38.7039H102.61V48.7711ZM163.034 71.1042H153.14L136.593 46.0518V71.1042H126.699V30.4881H136.593L153.14 55.6562V30.4881H163.034V71.1042ZM176.338 38.4146V46.6304H189.588V54.2676H176.338V63.1777H191.323V71.1042H166.444V30.4881H191.323V38.4146H176.338ZM214.699 71.1042L206.251 55.7719H203.879V71.1042H193.986V30.4881H210.591C213.792 30.4881 216.511 31.0474 218.749 32.166C221.024 33.2846 222.722 34.8275 223.84 36.7946C224.959 38.7232 225.518 40.8832 225.518 43.2747C225.518 45.9747 224.747 48.3854 223.204 50.5069C221.699 52.6283 219.462 54.1326 216.492 55.0198L225.865 71.1042H214.699ZM203.879 48.7711H210.012C211.825 48.7711 213.175 48.3276 214.062 47.4404C214.988 46.5533 215.451 45.2997 215.451 43.6797C215.451 42.1368 214.988 40.9218 214.062 40.0347C213.175 39.1475 211.825 38.7039 210.012 38.7039H203.879V48.7711Z" fill="#2B2C32"/>
</g>
</g>
</svg>
